<svg width="32" height="32" viewBox="0 0 140 140" fill="none" xmlns="http://www.w3.org/2000/svg">
<path d="M0 6.86025C0 3.07144 3.07144 0 6.86025 0H133.14C136.929 0 140 3.07144 140 6.86025V133.14C140 136.929 136.929 140 133.14 140H6.86025C3.07144 140 0 136.929 0 133.14V6.86025Z" fill="#F6C700"/>
<path d="M6.65381 47.2397H18.3258C22.0126 47.2397 24.8009 47.5268 26.6907 48.1012C28.5989 48.6755 30.1367 49.8427 31.3039 51.6028C32.4711 53.3443 33.0547 56.1604 33.0547 60.051C33.0547 62.6819 32.6378 64.516 31.8041 65.5535C30.9889 66.591 29.3678 67.3877 26.9408 67.9435C29.6457 68.5549 31.4799 69.5739 32.4433 71.0005C33.4067 72.4085 33.8884 74.5761 33.8884 77.5034V81.672C33.8884 84.7104 33.5364 86.9614 32.8324 88.425C32.1469 89.8886 31.0445 90.8891 29.5253 91.4264C28.0061 91.9637 24.8936 92.2323 20.1877 92.2323H6.65381V47.2397ZM18.3536 54.9376V64.9422C18.8538 64.9236 19.2429 64.9144 19.5208 64.9144C20.6694 64.9144 21.4012 64.6365 21.7162 64.0806C22.0312 63.5063 22.1886 61.8852 22.1886 59.2173C22.1886 57.8093 22.0589 56.8274 21.7996 56.2716C21.5402 55.6972 21.1974 55.3359 20.7713 55.1877C20.3637 55.0395 19.5578 54.9561 18.3536 54.9376ZM18.3536 71.9453V84.5344C20.0025 84.4788 21.0492 84.2194 21.4939 83.7562C21.957 83.2931 22.1886 82.1537 22.1886 80.338V76.1417C22.1886 74.2149 21.9848 73.0477 21.5772 72.6401C21.1697 72.2325 20.0951 72.0009 18.3536 71.9453Z" fill="black"/>
<path d="M72.5048 47.2397V92.2323H62.2779V61.8574L58.1927 92.2323H50.9395L46.6319 62.5522V92.2323H36.4051V47.2397H51.5508C51.9955 49.9446 52.4679 53.1312 52.9681 56.7996L54.58 68.2492L57.2479 47.2397H72.5048Z" fill="black"/>
<path d="M76.6322 47.2397H85.3862C91.0369 47.2397 94.8534 47.4991 96.8358 48.0178C98.8367 48.5366 100.356 49.3888 101.393 50.5745C102.431 51.7602 103.079 53.0849 103.339 54.5485C103.598 55.9936 103.728 58.8468 103.728 63.108V78.8651C103.728 82.904 103.533 85.6089 103.144 86.9799C102.774 88.3324 102.116 89.3977 101.171 90.1758C100.226 90.9354 99.0591 91.4727 97.6695 91.7877C96.28 92.0841 94.1865 92.2323 91.3889 92.2323H76.6322V47.2397ZM88.332 54.9376V84.5344C90.0179 84.5344 91.0554 84.2009 91.4445 83.5339C91.8336 82.8484 92.0281 81.005 92.0281 78.0036V60.5235C92.0281 58.4855 91.9632 57.1794 91.8336 56.605C91.7039 56.0307 91.4074 55.6138 90.9443 55.3545C90.4811 55.0766 89.6103 54.9376 88.332 54.9376Z" fill="black"/>
<path d="M118.416 47.2397V57.8834C119.342 56.8088 120.37 56.0122 121.5 55.4934C122.649 54.9561 123.89 54.6875 125.224 54.6875C126.762 54.6875 128.096 54.9283 129.226 55.41C130.356 55.8917 131.218 56.568 131.811 57.4387C132.403 58.3095 132.755 59.1618 132.867 59.9955C132.996 60.8292 133.061 62.6078 133.061 65.3312V81.9499C133.061 84.6548 132.876 86.6742 132.505 88.0082C132.153 89.3236 131.31 90.4722 129.976 91.4542C128.642 92.4176 127.058 92.8993 125.224 92.8993C123.909 92.8993 122.677 92.6121 121.528 92.0378C120.398 91.4634 119.36 90.6019 118.416 89.4533L117.693 92.2323H107.188V47.2397H118.416ZM121.834 65.8314C121.834 63.9232 121.713 62.6819 121.473 62.1075C121.232 61.5147 120.759 61.2182 120.055 61.2182C119.37 61.2182 118.925 61.4776 118.721 61.9964C118.518 62.4966 118.416 63.775 118.416 65.8314V81.7275C118.416 83.7099 118.527 84.979 118.749 85.5348C118.99 86.0906 119.453 86.3685 120.139 86.3685C120.843 86.3685 121.297 86.0814 121.5 85.507C121.723 84.9327 121.834 83.5524 121.834 81.3663V65.8314Z" fill="black"/>
</svg>
