<svg width="140" height="64" viewBox="0 0 140 64" fill="none" xmlns="http://www.w3.org/2000/svg">
<path d="M0 5.95862C0 2.66777 2.65677 0 5.93407 0H134.066C137.343 0 140 2.66777 140 5.95862V58.0414C140 61.3322 137.343 64 134.066 64H5.93406C2.65677 64 0 61.3322 0 58.0414V5.95862Z" fill="#F6C700"/>
<path d="M15.206 12.3414H25.3022C28.4913 12.3414 30.9032 12.5908 32.5378 13.0897C34.1884 13.5885 35.5185 14.6023 36.5282 16.131C37.5378 17.6437 38.0426 20.0897 38.0426 23.469C38.0426 25.754 37.682 27.3471 36.9609 28.2483C36.2557 29.1494 34.8535 29.8414 32.7541 30.3241C35.0939 30.8552 36.6804 31.7402 37.5137 32.9793C38.3471 34.2023 38.7637 36.0851 38.7637 38.6276V42.2483C38.7637 44.8874 38.4592 46.8425 37.8503 48.1138C37.2573 49.3851 36.3038 50.254 34.9897 50.7207C33.6756 51.1874 30.9833 51.4207 26.9128 51.4207H15.206V12.3414ZM25.3262 19.0276V27.7172C25.7589 27.7011 26.0955 27.6931 26.3359 27.6931C27.3294 27.6931 27.9625 27.4517 28.2349 26.969C28.5073 26.4701 28.6435 25.0621 28.6435 22.7448C28.6435 21.5218 28.5314 20.669 28.307 20.1862C28.0826 19.6874 27.7862 19.3736 27.4176 19.2448C27.065 19.1161 26.3679 19.0437 25.3262 19.0276ZM25.3262 33.8V44.7345C26.7525 44.6862 27.658 44.4609 28.0426 44.0586C28.4432 43.6563 28.6435 42.6667 28.6435 41.0897V37.4448C28.6435 35.7713 28.4673 34.7575 28.1147 34.4034C27.7621 34.0494 26.8326 33.8483 25.3262 33.8Z" fill="black"/>
<path d="M72.1666 12.3414V51.4207H63.3205V25.0379L59.7868 51.4207H53.5128L49.7868 25.6414V51.4207H40.9407V12.3414H54.0416C54.4262 14.6908 54.8349 17.4586 55.2676 20.6448L56.6618 30.5897L58.9695 12.3414H72.1666Z" fill="black"/>
<path d="M75.7368 12.3414H83.3089C88.1968 12.3414 91.498 12.5667 93.2128 13.0172C94.9435 13.4678 96.2576 14.208 97.1551 15.2379C98.0525 16.2678 98.6134 17.4184 98.8378 18.6897C99.0621 19.9448 99.1743 22.423 99.1743 26.1241V39.8103C99.1743 43.3184 99.006 45.6678 98.6695 46.8586C98.349 48.0333 97.7801 48.9586 96.9628 49.6345C96.1455 50.2943 95.1359 50.7609 93.9339 51.0345C92.732 51.292 90.9211 51.4207 88.5012 51.4207H75.7368V12.3414ZM85.857 19.0276V44.7345C87.3153 44.7345 88.2128 44.4448 88.5493 43.8655C88.8859 43.2701 89.0541 41.669 89.0541 39.0621V23.8793C89.0541 22.1092 88.998 20.9747 88.8859 20.4759C88.7737 19.977 88.5173 19.6149 88.1166 19.3897C87.716 19.1483 86.9628 19.0276 85.857 19.0276Z" fill="black"/>
<path d="M111.879 12.3414V21.5862C112.68 20.6529 113.57 19.9609 114.547 19.5103C115.541 19.0437 116.615 18.8103 117.769 18.8103C119.099 18.8103 120.253 19.0195 121.23 19.4379C122.208 19.8563 122.953 20.4437 123.466 21.2C123.978 21.9563 124.283 22.6966 124.379 23.4207C124.491 24.1448 124.547 25.6897 124.547 28.0552V42.4897C124.547 44.8391 124.387 46.5931 124.067 47.7517C123.762 48.8943 123.033 49.892 121.879 50.7448C120.725 51.5816 119.355 52 117.769 52C116.631 52 115.565 51.7506 114.571 51.2517C113.594 50.7529 112.696 50.0046 111.879 49.0069L111.254 51.4207H102.168V12.3414H111.879ZM114.836 28.4897C114.836 26.8322 114.732 25.754 114.523 25.2552C114.315 24.7402 113.906 24.4828 113.297 24.4828C112.704 24.4828 112.32 24.708 112.144 25.1586C111.967 25.5931 111.879 26.7034 111.879 28.4897V42.2966C111.879 44.0184 111.975 45.1207 112.168 45.6034C112.376 46.0862 112.777 46.3276 113.37 46.3276C113.978 46.3276 114.371 46.0782 114.547 45.5793C114.74 45.0805 114.836 43.8816 114.836 41.9828V28.4897Z" fill="black"/>
</svg>
